#!OML:ASF F:\VICON\USERDATA\INSTALL\Justin_Nancy\Justin_Nancy.ASF
:FULLY-SPECIFIED
:DEGREES
32
root 10.0257 17.9205 -23.583 -0.156988 0.056869 -1.942
lowerback 5.82016 -1.46819 -0.112617
upperback 0.71833 -1.85906 3.98119
thorax -2.38626 -0.913163 4.32508
lowerneck -14.4567 -3.50912 -9.69008
upperneck 23.0174 -3.52882 4.10293
head 9.96447 -2.02024 2.61025
rclavicle -2.31584e-014 2.06736e-014
rhumerus -37.4662 -16.4337 -73.6494
rradius 27.4759
rwrist 9.72279
rhand -11.5212 10.6278
rfingers 7.12502
rthumb 14.5183 -18.8442
lclavicle -2.31584e-014 2.06736e-014
lhumerus -27.1214 4.71905 87.9686
lradius 29.246
lwrist -8.88664
lhand -14.1568 27.8037
lfingers 7.12502
lthumb 11.9779 57.441
rfemur -2.24176 1.86794 28.0268
rtibia 2.06736e-014
rfoot 4.94475 0.855586
rtoes 10.9595
lfemur -10.5357 -0.361141 -17.6953
ltibia 60.5176
lfoot 24.72 -8.84557
ltoes 7.8851
33
root 10.009 17.9184 -23.4582 -0.343081 -0.0600849 -2.45593
lowerback 5.95715 -1.38558 0.356818
upperback 0.806102 -1.71431 4.12846
thorax -2.39257 -0.845136 4.20495
lowerneck -14.4043 -3.3193 -9.76834
upperneck 23.1383 -3.28382 4.24155
head 9.9816 -1.9007 2.70732
rclavicle -1.30701e-014 -4.53229e-014
rhumerus -37.0946 -15.8368 -74.0648
rradius 27.9931
rwrist 9.31554
rhand -10.9773 9.59998
rfingers 7.12502
rthumb 15.0423 -19.8336
lclavicle -1.30701e-014 -4.53229e-014
lhumerus -27.1571 4.74609 88.0009
lradius 29.1643
lwrist -9.28411
lhand -13.8562 29.0813
lfingers 7.12502
lthumb 12.2678 58.7014
rfemur -1.56488 1.88866 28.6865
rtibia -7.95139e-016
rfoot 4.47998 0.708295
rtoes 10.2714
lfemur -11.7725 0.180345 -17.0036
ltibia 62.1775
lfoot 22.0119 -7.96662
ltoes 4.54087
34
root 9.99194 17.9226 -23.3306 -0.445829 -0.122795 -2.736
lowerback 6.10621 -1.31173 0.591804
upperback 0.808838 -1.59331 4.22644
thorax -2.48528 -0.7855 4.16993
lowerneck -14.3996 -3.48557 -9.79536
upperneck 23.0623 -3.45634 4.03093
head 9.96606 -2.00503 2.61285
rclavicle -4.27387e-015 1.59028e-014
rhumerus -36.9381 -15.084 -74.4075
rradius 28.4502
rwrist 8.94398
rhand -11.5591 10.3304
rfingers 7.12502
rthumb 14.4818 -19.1442
lclavicle -4.27387e-015 1.59028e-014
lhumerus -27.3526 4.68742 88.0921
lradius 29.1284
lwrist -8.93086
lhand -14.2273 28.955
lfingers 7.12502
lthumb 11.9099 58.5963
rfemur -0.990282 1.86215 29.0744
rtibia 4.96962e-015
rfoot 3.98476 0.5958
rtoes 9.64692
lfemur -12.9728 0.638462 -16.6027
ltibia 63.6224
lfoot 17.7294 -7.09183
ltoes -5.81106
35
root 9.97245 17.9277 -23.2037 -0.49267 -0.216279 -2.78472
lowerback 6.15162 -1.18058 0.582892
upperback 0.847907 -1.41899 4.2266
thorax -2.48184 -0.69866 4.16185
lowerneck -14.6287 -3.60727 -10.0034
upperneck 23.144 -3.59049 4.19035
head 10.0574 -2.06581 2.68511
rclavicle -9.69075e-015 4.92986e-014
rhumerus -36.4604 -15.0795 -74.4655
rradius 28.3222
rwrist 9.03132
rhand -12.1265 12.0459
rfingers 7.12502
rthumb 13.9351 -17.4671
lclavicle -9.69075e-015 4.92986e-014
lhumerus -27.5595 4.51102 88.1305
lradius 29.2454
lwrist -8.61446
lhand -14.16 28.6845
lfingers 7.12502
lthumb 11.9748 58.322
rfemur -0.492066 1.87412 29.2173
rtibia -1.35174e-014
rfoot 3.41128 0.493839
rtoes 9.97218
lfemur -14.1804 1.11053 -16.4647
ltibia 64.8828
lfoot 15.554 -5.41996
ltoes -7.32791
36
root 9.95691 17.9247 -23.0809 -0.55148 -0.39529 -2.97346
lowerback 6.19635 -0.988756 0.823267
upperback 0.933842 -1.15024 4.17366
thorax -2.44204 -0.567536 3.94825
lowerneck -14.5302 -3.81946 -9.90665
upperneck 22.7675 -3.93608 4.26896
head 9.93025 -2.20217 2.64737
rclavicle -2.22142e-014 3.73715e-014
rhumerus -35.8283 -15.669 -74.4909
rradius 28.0499
rwrist 9.20887
rhand -11.6507 12.9765
rfingers 7.12502
rthumb 14.3936 -16.5044
lclavicle -2.22142e-014 3.73715e-014
lhumerus -27.5638 4.41996 87.9933
lradius 29.2505
lwrist -9.10901
lhand -13.7459 28.6477
lfingers 7.12502
lthumb 12.3741 58.2614
rfemur 0.0296586 1.96783 29.5197
rtibia 1.36167e-014
rfoot 2.94081 0.546378
rtoes 10.1135
lfemur -15.3814 1.59135 -16.187
ltibia 65.9723
lfoot 13.7218 -4.20389
ltoes -7.49758
37
root 9.94494 17.9142 -22.9615 -0.642175 -0.654426 -3.02249
lowerback 6.37222 -0.862316 0.877913
upperback 0.864893 -0.969464 4.1611
thorax -2.62403 -0.475985 3.89495
lowerneck -13.6353 -3.83524 -9.45457
upperneck 21.9851 -4.01513 3.72303
head 9.46956 -2.25792 2.37317
rclavicle 3.10601e-014 -2.70347e-014
rhumerus -35.562 -15.4267 -74.7283
rradius 28.1389
rwrist 8.74148
rhand -11.2034 13.1966
rfingers 7.12502
rthumb 14.8246 -16.2531
lclavicle 3.10601e-014 -2.70347e-014
lhumerus -27.8962 4.47256 87.9035
lradius 29.2678
lwrist -9.07813
lhand -13.8843 28.9316
lfingers 7.12502
lthumb 12.2407 58.5534
rfemur 0.593094 2.13337 29.6635
rtibia 1.799e-014
rfoot 2.54226 0.665406
rtoes 9.59288
lfemur -16.4806 2.03135 -16.1061
ltibia 66.8358
lfoot 13.1155 -3.6643
ltoes -1.05927
38
root 9.93264 17.9013 -22.8415 -0.736499 -0.888267 -3.16315
lowerback 6.38323 -0.777607 1.05408
upperback 0.855423 -0.844081 4.14245
thorax -2.65048 -0.414956 3.76553
lowerneck -13.8736 -3.71528 -9.51218
upperneck 22.4563 -3.85036 3.8611
head 9.67156 -2.17636 2.45332
rclavicle -2.43511e-015 -6.36111e-015
rhumerus -35.3135 -15.1383 -74.9853
rradius 28.2939
rwrist 8.61854
rhand -11.046 12.3352
rfingers 7.12502
rthumb 14.9762 -17.1033
lclavicle -2.43511e-015 -6.36111e-015
lhumerus -28.1341 4.49436 87.7822
lradius 29.2239
lwrist -8.66337
lhand -13.8217 29.3305
lfingers 7.12502
lthumb 12.301 58.9487
rfemur 1.16157 2.27077 29.8998
rtibia 2.00773e-014
rfoot 2.17506 0.782994
rtoes 9.58529
lfemur -17.5056 2.39039 -15.9108
ltibia 67.4743
lfoot 10.8434 -3.99162
ltoes 0.508436
39
root 9.9188 17.8858 -22.722 -0.809 -1.08958 -3.21061
lowerback 6.33203 -0.612723 1.15764
upperback 0.941608 -0.624737 4.06385
thorax -2.54728 -0.307804 3.60395
lowerneck -13.9007 -3.68259 -9.55455
upperneck 22.443 -3.84551 4.08669
head 9.67575 -2.15201 2.54018
rclavicle -9.79014e-015 7.15625e-015
rhumerus -35.0152 -15.1046 -75.1997
rradius 28.5301
rwrist 8.68866
rhand -10.7188 10.096
rfingers 7.12502
rthumb 15.2914 -19.3187
lclavicle -9.79014e-015 7.15625e-015
lhumerus -28.1924 4.64074 87.6416
lradius 29.1635
lwrist -8.41158
lhand -14.5009 26.3512
lfingers 7.12502
lthumb 11.646 56.0075
rfemur 1.70312 2.3801 30.044
rtibia 4.96962e-015
rfoot 1.85406 0.860927
rtoes 10.0312
lfemur -18.4903 2.58565 -15.845
ltibia 67.8236
lfoot 8.09557 -2.02324
ltoes -5.69538
40
root 9.90427 17.8756 -22.6064 -0.903532 -1.26546 -3.21454
lowerback 6.49815 -0.464921 1.18014
upperback 1.01153 -0.424301 4.01312
thorax -2.57924 -0.208376 3.52309
lowerneck -13.9938 -3.7055 -9.68251
upperneck 22.4206 -3.88685 4.2969
head 9.69514 -2.15712 2.62904
rclavicle 2.88238e-015 1.74931e-014
rhumerus -34.6164 -14.9509 -75.4564
rradius 28.7653
rwrist 8.52071
rhand -10.848 9.36388
rfingers 7.12502
rthumb 15.167 -20.0603
lclavicle 2.88238e-015 1.74931e-014
lhumerus -28.3513 4.50242 87.6212
lradius 29.2169
lwrist -7.67838
lhand -14.3308 28.4993
lfingers 7.12502
lthumb 11.8101 58.1463
rfemur 2.23963 2.46037 30.1429
rtibia -2.76311e-014
rfoot 1.34178 0.714486
rtoes 9.6069
lfemur -19.4535 2.66308 -15.8592
ltibia 67.9103
lfoot 7.20784 -1.43868
ltoes -4.49539
41
root 9.89175 17.8819 -22.4833 -0.963844 -1.53019 -3.30659
lowerback 6.54116 -0.317146 1.23988
upperback 1.11565 -0.224877 4.05536
thorax -2.50622 -0.110165 3.51566
lowerneck -14.2933 -3.80722 -9.90527
upperneck 22.5761 -3.97668 4.42419
head 9.82254 -2.20224 2.6976
rclavicle 1.08835e-014 -1.66979e-014
rhumerus -34.0164 -14.6082 -75.7208
rradius 28.8917
rwrist 7.88233
rhand -11.5791 11.2502
rfingers 7.12502
rthumb 14.4625 -18.2258
lclavicle 1.08835e-014 -1.66979e-014
lhumerus -28.8062 1.47229 89.3613
lradius 29.7613
lwrist 2.50196
lhand -22.511 24.8374
lfingers 7.12502
lthumb 3.91536 54.7812
rfemur 2.72177 2.63108 30.3188
rtibia 1.23246e-014
rfoot 0.831892 0.571072
rtoes 10.1232
lfemur -20.4197 2.84138 -15.7672
ltibia 67.788
lfoot 5.4346 -1.14353
ltoes -6.91674
42
root 9.88239 17.8985 -22.3569 -0.98359 -1.7855 -3.4047
lowerback 6.38808 -0.217429 1.33596
upperback 1.31714 -0.098237 4.13172
thorax -2.21922 -0.0497032 3.52677
lowerneck -14.8563 -3.83274 -10.1125
upperneck 22.8087 -3.9068 4.44307
head 10.013 -2.18235 2.74477
rclavicle -6.95746e-015 1.43125e-014
rhumerus -33.0848 -14.1883 -76.0191
rradius 28.7909
rwrist 7.41418
rhand -12.3751 12.5516
rfingers 7.12502
rthumb 13.6955 -16.9778
lclavicle -6.95746e-015 1.43125e-014
lhumerus -28.4231 3.78784 88.3853
lradius 29.6298
lwrist -3.8132
lhand -17.3652 32.8585
lfingers 7.12502
lthumb 8.8829 62.6515
rfemur 3.1133 2.79807 30.4763
rtibia 1.13307e-014
rfoot 0.553013 0.518996
rtoes 11.382
lfemur -21.5578 3.03129 -15.721
ltibia 67.5181
lfoot 4.33994 -1.34559
ltoes -9.29909
43
root 9.87338 17.8761 -22.2407 -0.990537 -1.98965 -3.36269
lowerback 6.39722 -0.0529104 1.3632
upperback 1.36361 0.119343 4.05854
thorax -2.18734 0.0583064 3.41686
lowerneck -14.9534 -3.84898 -9.89662
upperneck 22.8948 -3.89861 4.13988
head 10.0513 -2.19418 2.60176
rclavicle -8.15017e-015 6.67916e-014
rhumerus -32.5316 -14.4032 -76.1181
rradius 28.7881
rwrist 7.53215
rhand -12.1902 12.3604
rfingers 7.12502
rthumb 13.8737 -17.1568
lclavicle -8.15017e-015 6.67916e-014
lhumerus -28.3428 5.10433 87.6687
lradius 29.2698
lwrist -7.27541
lhand -21.7003 15.2806
lfingers 7.12502
lthumb 4.69812 45.2085
rfemur 1.54434 2.94785 30.4951
rtibia 3.7936
rfoot -1.49769 0.119353
rtoes 11.2591
lfemur -22.2846 2.943 -15.7323
ltibia 67.3584
lfoot 3.28378 -1.31816
ltoes -5.91655
44
root 9.86384 17.8371 -22.1332 -1.02882 -2.16696 -3.36824
lowerback 6.68937 0.108323 1.48885
upperback 1.12523 0.360181 3.88707
thorax -2.60678 0.179237 3.14932
lowerneck -14.3155 -3.78466 -9.53606
upperneck 22.8122 -3.94051 4.03411
head 9.89171 -2.20017 2.50499
rclavicle -2.03754e-015 -6.36111e-015
rhumerus -32.636 -14.5525 -76.222
rradius 28.848
rwrist 7.82414
rhand -11.9075 11.3123
rfingers 7.12502
rthumb 14.1462 -18.1861
lclavicle -2.03754e-015 -6.36111e-015
lhumerus -28.8897 5.22464 87.2572
lradius 28.9395
lwrist -7.46479
lhand -22.1995 19.1511
lfingers 7.12502
lthumb 4.2161 49.0892
rfemur 0.666994 3.05851 30.5968
rtibia 6.58677
rfoot -3.05731 -0.00981592
rtoes 10.2094
lfemur -23.044 2.92643 -15.7022
ltibia 67.1077
lfoot 2.08618 -1.0148
ltoes -2.8365
45
root 9.85699 17.8053 -22.0216 -0.992407 -2.24227 -3.41742
lowerback 6.68119 0.166243 1.70022
upperback 1.04952 0.451956 3.76874
thorax -2.68186 0.222974 2.89892
lowerneck -14.2389 -3.76774 -9.44165
upperneck 22.8684 -3.97088 4.11896
head 9.89802 -2.19833 2.51682
rclavicle 1.31695e-014 -3.97569e-015
rhumerus -32.4577 -14.3946 -76.4631
rradius 29.0668
rwrist 7.99867
rhand -12.1616 9.94142
rfingers 7.12502
rthumb 13.9013 -19.5739
lclavicle 1.31695e-014 -3.97569e-015
lhumerus -29.2148 5.31094 86.9866
lradius 28.793
lwrist -7.07227
lhand -18.8199 23.0417
lfingers 7.12502
lthumb 7.47896 52.8895
rfemur -0.0920639 3.07919 30.7317
rtibia 9.00665
rfoot -4.37304 -0.0904549
rtoes 9.99553
lfemur -23.9968 2.80649 -15.684
ltibia 66.5818
lfoot 0.448777 -0.83161
ltoes -4.12032
46
root 9.85154 17.7835 -21.9084 -0.994724 -2.4664 -3.6929
lowerback 6.63602 0.253513 2.09397
upperback 1.14866 0.589797 3.77651
thorax -2.55557 0.287949 2.67255
lowerneck -14.5553 -3.7959 -9.52072
upperneck 23 -3.99462 4.25598
head 10.0114 -2.19887 2.57331
rclavicle 1.93815e-015 2.62396e-014
rhumerus -31.8193 -14.4683 -76.652
rradius 28.9899
rwrist 8.48809
rhand -13.1682 11.2755
rfingers 7.12502
rthumb 12.931 -18.3038
lclavicle 1.93815e-015 2.62396e-014
lhumerus -29.3605 4.59787 87.3865
lradius 28.6859
lwrist -3.50696
lhand -14.169 24.5157
lfingers 7.12502
lthumb 11.9661 54.1537
rfemur -0.620761 3.23104 31.0945
rtibia 10.8434
rfoot -5.27697 -0.260404
rtoes 10.2348
lfemur -24.8273 2.70181 -15.3932
ltibia 65.8342
lfoot -1.433 -0.937066
ltoes -7.53915
